# xmcd
#
# Track frame offsets:
#	150
#	10337
#	21860
#	32837
#	44997
#	54350
#	65662
#	77300
#	89090
#	101327
#
# Disc length: 1517 seconds
#
# Revision: 1
# Processed by: cddbd v1.4PL0 Copyright (c) Steve Scherf et al.
# Submitted via: audiograbber 1.80.04
#
DISCID=7e05eb0a
DTITLE=Willie Nelson - Good Ol' Country Singin'
DYEAR=2000
DGENRE=Country
TTITLE0=Ashamed
TTITLE1=He Sits At My Table
TTITLE2=Tender Years
TTITLE3=Down To Our Last Goodbye
TTITLE4=Blackjack County Chain
TTITLE5=Did I Ever Love You
TTITLE6=Something To Think About
TTITLE7=I Don't Feel Anything
TTITLE8=You Ought To Hear Me Cry
TTITLE9=I'm Still Not Over You
EXTD=RCA Camden release (24 bit mastering)
EXTT0=
EXTT1=
EXTT2=
EXTT3=
EXTT4=
EXTT5=
EXTT6=
EXTT7=
EXTT8=
EXTT9=
PLAYORDER=
